<?xml version="1.0" encoding="UTF-8"?><svg id="Layer_1" xmlns="http://www.w3.org/2000/svg" viewBox="0 0 226 226"><defs><style>.cls-1{fill:#fff;}.cls-2{fill:none;}.cls-3{fill:#4f2683;}</style></defs><rect class="cls-1" width="226" height="226"/><path class="cls-2" d="m94.16,165.41c-.05-2.18-.64-4.26-3.29-4.26s-3.36,2.31-3.54,4.67c0,.23-.03.51-.03.69h6.86c0-.18,0-.9,0-1.1Z"/><path class="cls-2" d="m135.28,165.41c-.05-2.18-.64-4.26-3.29-4.26s-3.36,2.31-3.54,4.67c-.03.23-.03.51-.03.69h6.86c0-.18,0-.9,0-1.1Z"/><path class="cls-3" d="m121.02,175.4c-1.21,0-1.72-.77-1.72-2.64v-10.99h3.9v-.8h-3.9v-5.26h-.67c-.44,3.39-2.13,5.14-5.21,5.42v.62h2.57v10.86c0,2.03.39,3.98,3.7,3.98,2.08,0,3.34-.95,4.01-2.21l.26-.51-.67-.28c-.41.92-1.08,1.82-2.26,1.82Z"/><path class="cls-3" d="m133.12,175.71c-4.11,0-4.7-3.13-4.7-7.91v-.26h10.55c0-4.26-2.36-7.19-6.78-7.19-4.8,0-7.4,3.7-7.4,8.17s2.44,8.17,7.37,8.17c3.06,0,5.55-1.16,6.83-4.55l-.74-.23c-.9,2.11-2.39,3.8-5.14,3.8Zm-4.67-9.89c.18-2.36,1.03-4.67,3.54-4.67,2.64,0,3.24,2.08,3.29,4.26v1.1h-6.86c0-.18,0-.46.03-.69Z"/><path class="cls-3" d="m103.25,163.31c0-1.26.9-2.21,2.52-2.21,2.57,0,4.01,1.82,4.65,3.98h.77l-.92-4.88c-.28.33-.69.51-1.18.51-1.08,0-1.72-.44-3.36-.44-2.8,0-4.98,1.52-4.98,4.29,0,5.68,8.68,4.44,8.68,8.53,0,1.85-1.34,2.72-3,2.72-3.11,0-4.93-2.03-5.62-4.98h-.77l1.05,5.7c.33-.39.77-.54,1.23-.54.9,0,2.03.69,4.06.69,3.24,0,5.7-1.8,5.7-4.88,0-6.14-8.81-4.52-8.81-8.5Z"/><path class="cls-3" d="m170.48,164.82c0-3.18-1.57-4.55-4.67-4.55-2.62,0-4.52,1.28-5.5,3.44h-.08v-3.49c-.44.36-1,.77-2.41.77h-3.36v.8h2.54v13.74l-2.72-.03v.8h8.5v-.8h-2.52v-8.27c0-2.95,1.52-5.83,4.39-5.83,1.62,0,2.59.92,2.59,3.31v10.79h-2.52v.8h8.27v-.8h-2.52v-10.68h0Z"/><path class="cls-3" d="m97.86,167.54c0-4.26-2.36-7.19-6.78-7.19-4.8,0-7.42,3.7-7.42,8.17s2.44,8.17,7.37,8.17c3.06,0,5.55-1.16,6.83-4.55l-.72-.23c-.9,2.11-2.39,3.8-5.14,3.8-4.11,0-4.7-3.13-4.7-7.91v-.26h10.55Zm-10.53-1.72c.18-2.36,1.03-4.67,3.54-4.67,2.64,0,3.24,2.08,3.29,4.26v1.1h-6.86c0-.18.03-.46.03-.69Z"/><path class="cls-3" d="m150.76,160.28c-2.59,0-3.88,2.31-4.55,4.16h-.03v-4.29c-.51.41-1.03.82-2.41.82h-3.57v.8h2.72v13.74h-2.72v.8h8.6v-.8h-2.62v-6.78c0-3.6,1.77-7.52,4.03-7.52.18,0,.28.03.39.05-.39.31-.64.8-.64,1.34,0,1,.77,1.72,1.72,1.72,1.03.03,1.75-.85,1.75-1.82,0-1.26-.92-2.21-2.67-2.21Z"/><path class="cls-3" d="m86.49,154.22v-.77h-6.47v.77h2.85l-.74,2.59-4.49,13.71h-.08l-5.03-13.76-.87-2.54h3.21v-.77h-9.94v.77h2.77l1.62,4.39-4.13,11.92h-.08l-4.96-13.71-.87-2.59h2.85v-.77h-9.12v.77h2.21l1.18,3.08,7.11,19.36h.64s4.37-12.48,5.75-16.51l6.16,16.51h.69l6.42-19.59,1-2.85h2.31Z"/><path class="cls-1" d="m122.28,88.14c.33-.26.56-.54.56-1.03,0-.56-.36-.9-.8-.9-.49,0-.74.39-.74.8,0,.44.31.72.98,1.13Z"/><path class="cls-1" d="m101.07,111.38c-.1-.15-.18-.49-.36-.64-.23-.21-.31-.18-.46-.28-.44-.28-.8-.49-1.03-.72-.46-.46-.82-.1-1.13,0-.1.05-.51.26-.62.28-.15.05-.1-.03-.08-.05.18-.1.41-.31.62-.56.18-.26.13-.56.15-.8.05-.67.05-1.21.1-1.75.26-.46.46-.85.69-1.23.08-.13.1-.15.23-.15.21-.03.46-.05.56-.08.1-.1.26-.59.23-.87-.15-.03-.54,0-.56.03-.36.1-.54.05-.72.33-.1.18-.41.64-.62.92-.21.33-.46.56-.54.69-.08.18-.05.26-.13.54-.08.33-.28.95-.41,1.34l-.03-.03c-.23-.59-.46-.98-.51-1.1-.05-.05-.98-.98-1.85-1.59.28-.23.85-.62.98-.72.28-.1.51-.13.69-.46.1-.44-.51.03-.51-.26s.54-.44.28-.82c-.23-.05-.8.13-1.67.36-.08-.1-.28-.13-1.05.05,1.85-.98,2.13-2.21,2-2.8-.15-.67-.82-1.08-1.08-1.03-.05,0-.1.05-.1.08.03.1.64.33.74.92.1.56-.21,1.18-.54,1.54-.1.1-.15.03-.13-.03.05-.31.1-.46.05-.77-.1-.59-.85-.9-1.1-.85-.03,0-.08.05-.08.08,0,.1.69.31.77.8.05.28,0,.69-.31,1.1-.15.23-.36.31-.36.05,0-.1,0-.21-.03-.28-.1-.46-.49-.72-1.03-.82-.28-.05-.54.08-.21.18.28.08.72.26.8.72.08.44-.1.67-.31.69-.15.03-.28,0-.44-.08-.31-.15-.85-.44-1.18-.51-.15-.03-.28.05-.18.13.23.15,1.16.64,1.21.87.03.08-.05.13-.1.13-.49.1-1.62-.67-2.18-.74-.08,0-.18.08-.1.13.28.21,1.41.72,1.44.92.03.08-.1.15-.39.13-.39-.03-1.18-.46-1.54-.56-.15-.03-.28.08-.15.15.31.23.98.54,1,.69,0,.05-.03.13-.15.15s-.26,0-.41-.05c-.67-.18-1.67-.82-1.93-.77-.08.03-.1.1-.03.15.33.21.64.41.74.49.18.13.08.15-.15.15-.39-.03-.92-.13-1.36-.15-.1-.03-.18.13-.05.18.36.13,1.08.23,1.49.31.36.05.15.18.03.21-.49.13-1.16.15-1.64.15-.15,0-.18.21-.03.23.92.18,2.23-.05,2.88-.18,1.1-.21,1.82-.46,2.39-.72-.59.59-1.31,1.28-1.18,1.39.18.08,1-.05,1.23-.18,0,.03.03.05.03.08.1.36.03.62-.05.9.13.05.28.03.46-.05.08.26.05.54-.03.8.13.05.33,0,.46-.08.08.26.08.59,0,.8.1.05.33.03.51-.08.03.05.08.13.1.21-.28.74-1.05,2.36-1.31,3.13-.51.39-1.62,1.69-2.82,2.98.67.8,2.57,1.69,3.85,1.77.39-.41.56-.64.98-1.08.1-.13.23-.26.36-.26.15,0,.23.1.26.23.33-.33.31-.98.59-.98.1,0,.18.1.21.21.31-.36.26-1.03.56-1.03.1,0,.18.08.21.21.33-.51.49-1.39.56-1.54-.49-.23-1.1-.56-1.21-.87.31.28,1.41.49,1.82.28.51-.28,1.03-.72,1.34-.87.33-.18.41-.1.87.15.18.1.33.26.51.39.13.08.21.21.28.41.05.13.05.36.13.51.26.08.87.08,1.03-.03,0-.1-.03-.39-.28-.82Zm-7.45-6.75c-.1.13-.23.08-.36.03-.08-.05-.15-.03-.18-.03s-.05-.05-.03-.08c.05-.05.1-.1.18-.15.15-.08.33-.13.46-.15.05.1.03.26-.08.39Z"/><path class="cls-1" d="m114.84,94.69v-9.78c-.26-1.21-1.67-1.52-3.72-1.52-1.64,0-3.72.28-5.83.31v10.86c3.93-.39,8.55-.69,9.55,1.21v-.56c-.95-1.69-5.06-1.57-8.94-1.18v-.31c3.93-.39,7.68-.51,8.94.98Zm-4.42-7.4c0-.49.36-1.36,1.52-1.36.92,0,1.31.56,1.31,1.1s-.18.85-.95,1.21c.74.39,1.08.77,1.08,1.36,0,.8-.64,1.39-1.59,1.39-.87,0-1.41-.59-1.41-1.23-.03-.67.51-1,.92-1.16-.51-.31-.87-.74-.87-1.31Zm-3.8,3.39h.21c.67,0,.72-.08.72-.51v-1.87c0-.51-.08-.54-.51-.54h-.41v-.23c.44,0,.92.03,1.34.03.46,0,.9-.03,1.34-.03v.23h-.41c-.44,0-.51.03-.51.54v1.87c0,.44.05.51.72.51h.21v.23c-.41,0-.82-.03-1.34-.03-.39,0-.87.03-1.34.03v-.23Z"/><path class="cls-1" d="m121.69,88.73c-.39.21-.59.62-.59,1,0,.69.49,1.03.87,1.03.54-.03.8-.44.8-.8,0-.44-.21-.69-1.08-1.23Z"/><path class="cls-1" d="m82.74,78.85h64.79l4.16-4.31-8.53,2.85-.05-.05c1.05-.72,1.9-1.59,2.75-3.57.44-1.03.9-1.75,1.41-2.26.54-.54,1.13-.82,1.54-.98-1.05-.28-2.16-.15-3.31.36-1.9.82-2.9,2.47-4.93,2.75l4.19-7.47-7.55,4.88-.03-.03c.82-.95,1.44-2,1.77-4.16.18-1.1.44-1.93.82-2.54.39-.67.9-1.08,1.26-1.34-1.08-.03-2.08.36-3.08,1.16-1.64,1.28-2.31,3.06-4.13,3.93l2.18-8.27-6.11,6.6c.56-1.16.9-2.31.69-4.49-.1-1.1-.05-1.98.15-2.67.23-.72.59-1.26.9-1.59-1.05.26-1.98.74-2.75,1.75-1.28,1.67-1.39,3.72-3.03,5.01l.05-8.6-4.21,7.81c.26-1.21.31-2.41-.44-4.42-.39-1.05-.54-1.9-.51-2.62.03-.77.26-1.39.46-1.77-.95.49-1.72,1.18-2.21,2.36-.85,1.98-.51,3.93-1.77,5.65l-2.08-8.37-2.18,8.73h-.03c-.03-1.28-.28-2.49-1.54-4.29-.64-.92-1-1.69-1.16-2.41-.18-.74-.1-1.39,0-1.82-.8.72-1.36,1.67-1.54,2.93-.31,2.08.54,3.83-.26,5.75l-4.03-7.58.05,8.91c-.36-1.18-.92-2.26-2.54-3.67-.85-.74-1.39-1.41-1.72-2.05-.36-.67-.46-1.34-.46-1.77-.59.9-.85,1.95-.72,3.21.21,2.11,1.36,3.57,1.13,5.7l-5.85-6.32,2.23,8.47c-.64-1.03-1.46-1.9-3.31-2.82-1-.51-1.69-1.03-2.18-1.57-.49-.56-.74-1.16-.87-1.59-.36,1.03-.36,2.11.08,3.29.74,2,2.23,3.13,2.54,5.29l-7.29-4.7,4.24,7.58c-.87-.8-1.87-1.41-3.83-1.82-1.08-.23-1.9-.56-2.49-.98-.62-.44-1-.95-1.23-1.34-.08,1.08.18,2.11.9,3.16,1.23,1.77,3.13,2.49,3.8,4.55l-8.27-2.75,4.13,4.34Z"/><path class="cls-1" d="m103.67,84.24v11.74h7.24c2.47,0,2.93,1,3.03,1.21h2.41c.08-.18.49-1.21,2.98-1.21h7.27v-11.68h-.54v11.14h-6.65c-.51,0-.92.05-1.31.1-1.31.23-1.85.74-2.11,1.13h-1.69c-.26-.39-.82-.92-2.16-1.13-.36-.08-.8-.1-1.31-.1h-6.63v-11.2h-.54Z"/><path class="cls-1" d="m111.78,90.76c.54-.03.8-.44.8-.8,0-.44-.21-.69-1.08-1.23-.39.21-.59.62-.59,1,0,.69.49,1.03.87,1.03Z"/><path class="cls-1" d="m112.11,88.14c.33-.26.56-.54.56-1.03,0-.56-.36-.9-.8-.9-.49,0-.74.39-.74.8,0,.44.31.72.98,1.13Z"/><path class="cls-1" d="m115.4,95.2v.56c1.03-1.9,5.62-1.59,9.55-1.21v-10.86c-2.16,0-4.21-.31-5.83-.31-2.05,0-3.47.31-3.72,1.52v9.78c1.23-1.52,5.01-1.36,8.94-.98v.31c-3.9-.39-8.01-.54-8.94,1.18Zm1.95-2.72l-.36-.1,1.98-4.08h-2.03l-.18.46h-.21l.18-1.23h3.06l.05.08-2.49,4.88Zm4.6-1.49c-.87,0-1.41-.59-1.41-1.23-.03-.67.51-1,.92-1.16-.51-.31-.87-.74-.87-1.31,0-.49.36-1.36,1.52-1.36.92,0,1.31.56,1.31,1.1s-.18.85-.95,1.21c.74.39,1.08.77,1.08,1.36,0,.8-.64,1.39-1.59,1.39Z"/><path class="cls-1" d="m143.03,112.74c-.33-.54-.62-1.1-.56-1.77.05-.72.46-.95.77-.92.28,0,.49.23.49.54.23-.21.36-.44.36-.69.03-.18-.08-.49-.39-.56.56-.54.51-1.59-.08-2,.08.77-.49,1.28-1,1.77-.69.67-.77,1.41-.67,2.21-.41-.8-.59-1.54-.54-2.26.05-.82.46-1.67,1.08-1.62.21.03.39.1.46.28.28-.49.08-1-.39-1.05.46-1.13-.28-2.26-.92-2.52.15.33.26.69.21,1.08-.08,1.1-1.03,1.95-1.13,3.57-.1,1.75.87,3.29,1.93,4.44.03,0,.13-.1.21-.23.08-.1.18-.26.18-.26Z"/><path class="cls-1" d="m151.76,90.25v-11.38h-.05l-36.57,29.81,24.22,19.77c12.51-14.53,12.43-31.3,12.4-38.21Zm-24.88,18.16c0-5.19,4.21-9.4,9.37-9.4s9.35,4.24,9.32,9.42c0,5.19-4.21,9.4-9.35,9.4s-9.35-4.34-9.35-9.42Z"/><path class="cls-1" d="m140.23,103.68c.44-.67,1.1-1.28,1.87-1.54-.36-.1-1.05-.21-1.57-.15.05.08.1.15.1.26,0,.23-.18.44-.41.44s-.44-.18-.44-.41c0-.21.15-.39.36-.44l-.49-.74-.82.36c.08.08.13.18.15.31,0,.23-.18.44-.41.44s-.44-.18-.44-.41c0-.18.1-.33.26-.41-.26-.26-.77-.67-1.28-.82.39.72.62,1.59.59,2.31.51-.03,1.98.41,2.52.82Z"/><path class="cls-1" d="m139.54,112.44c-.85-.87-1.08-1.8-1.08-2.47,0-.23.03-.44.08-.62.26.15.59.13.82-.08-.39-.31-.33-.9-.21-1.1.21.18.62.13.8-.05-.31-.18-.46-.67-.31-1.08.15.18.54.18.77,0-.31-.26-.46-.67-.39-1.16.15.21.41.23.62.15-.13-.26-.13-.69-.18-.98-.05-.39-.15-.85-.28-1.08-.44-.36-1.72-.9-2.54-.9-.1,0-.21.03-.31.03-.23.05-.39.13-.39.18-.13.18-.41.23-.69.31-.15.15-.67.28-.87.41-.05.1-.05.18-.03.26l.03.05c-.03.13-.03.33.03.56.03.15.15.21.41.21,0,.05,0,.13.03.18v.03c-.15.05-.28.08-.41.05-.39-.03-.64-.23-.59-.64,0-.08.03-.13.08-.21.03-.03,0-.05-.03-.08-.13-.05-.54.28-.59.74-.05.44.18.67.54.69.21,0,.46-.03.74-.13.49-.21,1.03-.26,1.36.08-.26-.05-.9,0-1.1.03-.28.05-.41.64-.1.64.23.03,1.13-.05,1.18-.03-.08.39-.67.87-1.21.98-.33-.15-1.34-.1-1.77.03-.56-.64-.98-1.82-1.03-2.21-.03-.18-.03-.39.08-.54.18-.33.54-.28.72-.56.1-.15.05-.33.08-.49,0-.08.15-.31-.03-.41-.08.1-.21.18-.36.13-.1-.03-.23-.08-.33-.03-.21.08-.23.33-.39.49-.08.08-.18.05-.15-.1.03-.23.15-.44.1-.67-.03-.23-.21-.41-.44-.54-.1-.05-.21-.15-.33-.18-.1-.03-.21.03-.21.05.05.05.1.1.1.18,0,.21-.21.31-.23.51,0,.31.21.56.23.72.03.13-.08.13-.15.08-.15-.08-.39-.21-.62-.23-.18,0-.31.15-.46.21-.08.03-.36.03-.31.15.15.03.28.13.33.28.05.1.08.21.18.28.18.13.56.1.74.13.13.03.26.1.28.33.03.18-.03.36-.13.49-.15.26-.21.51-.15.74.08-.1.13-.13.21-.13.15,0,.21.18.1.44-.1.23-.18.46-.08.77.05-.1.13-.15.21-.15.15,0,.23.15.13.44-.1.26-.13.49-.03.74.05-.1.13-.18.23-.18.15,0,.21.15.28.28.18.44.46.64,1.16.64-.26.46-2.26.15-3.11.08-.18-.03-.28-.08-.33-.21-.13-.33.18-.59,0-.92-.08-.18-.23-.21-.36-.31-.08-.05-.26-.28-.39-.18.05.13.05.23-.1.36-.1.08-.18.15-.21.28-.03.23.15.44.23.64.05.15-.03.21-.15.1-.21-.15-.49-.49-.77-.49-.21,0-.26.13-.41.21-.08.03-.39.08-.36.23.13.03.26.1.31.28.03.13.05.26.15.33.28.21.69.13.95.18.1.03.13.1.03.15-.21.13-.51.21-.62.44-.08.18-.03.39-.03.54,0,.08-.1.31.08.36.08-.1.21-.21.39-.18.13.03.23.08.36,0,.21-.1.23-.31.33-.49.05-.1.15-.18.31-.18.1,0,.18.03.26.08.15.15.15.49.64.56-.03-.05-.05-.13-.05-.18,0-.1.05-.18.15-.18s.21.05.31.23c.13.23.28.28.49.31-.03-.05-.05-.13-.05-.18,0-.1.05-.18.15-.18.05,0,.15.03.26.18.15.26.26.36.49.39-.08-.15-.03-.33.18-.33.18,0,.67.15,1.03.31,0,.92.59,1.9,1.46,2.49-.03-.18.05-.28.18-.28.36,0,.54.85,1.34,1.23-.05-.15.05-.26.15-.26s.23.05.28.1c.72.39,1.49.87,1.85,1.21.74-.23,1.95-.95,2.75-1.77-.49-.15-1.85-1.16-2.31-1.64Zm-2.72-.69l-.23.28-.23-.28-.36.28c.18-.31.49-1.16.54-1.69h.08c.08.54.36,1.36.54,1.69l-.33-.28Zm.31-6.11c-.26-.31-.62-.39-.92-.36.03-.08.03-.13.05-.18.1-.08.28-.1.46-.1s.33.03.41.1c.08.05.08.15.08.21,0,.08-.03.23-.08.33Zm.8-1.75s-.03.05-.05.05c-.13.03-.23.08-.26.1-.03.08-.08.18-.18.23-.05.03-.1.03-.15.03-.08,0-.13-.05-.18-.1s-.05-.15-.05-.23c.03-.1.13-.31.39-.28.13.03.18.08.21.1.03,0,.05.03.1.05.05.03.13.03.18.05.03-.03.03,0,0,0Zm1,10.27l-.23.28-.23-.28-.36.28c.21-.31.51-1.16.56-1.69h.08c.05.54.33,1.36.51,1.69l-.33-.28Z"/><path class="cls-1" d="m123.26,123.97c-.28-.1-.31-.1-.56.08-.21.13-.49.21-.82.15-.56-.08-.92-.46-.92-.72-.33-.03-.72.62-.9.87-.26.33-.54.59-.87.85-.28.21-.72.67-1.05.44-.23-.15-.26-.72-.23-1.03.03-.51.08-.9.15-1.23.05-.28.15-.64.23-.92.1-.33.28-.72.41-1.05.08-.15.46-.85.46-1.1,0-.08-.05-.1-.13-.1-.15,0-.41.18-.64.31-.21.1-.39.18-.64.18-.28,0-.54-.13-.72-.46-.33-.59-.33-1.8-.49-2.18-.31.15-.56.08-.77-.21-.23-.33-.36-.74-.51-1.13-.05-.15-.15-.59-.23-.85-.18.36-.21.77-.33,1.1-.05.18-.1.46-.15.67-.08.26-.28.69-.54.69-.13,0-.23-.15-.26-.23-.08,0-.15.1-.21.26-.1.28-.1.51-.18.8-.13.54-.21,1.26-.87,1.36-.28.05-.64-.18-.87-.28-.56-.28-.33.49-.18.8.18.28.41.64.46,1.08.1.72.23,1.05.39,1.72.1.41.26.98.26,1.41,0,.51-.39.82-1,.28-.18-.15-.59-.64-.92-.74-.46-.13-.95-.62-1.13-.87-.1.03-.31.18-.41.26-.54.49-1.1.62-2,.46-.46-.1-.62-.21-1.03-.41-.33-.15-.64-.31-.87-.64-.05-.08-.1-.26-.23-.23s-.15.31-.15.41c0,.33.13.69.28.98.18.33.49.46.72.72.21.23.1.54-.26.41.03.26.31.31.49.44.18.15.28.36.39.56.13.26.51.49.51.82,0,.26-.08.41-.28.54-.28.13-.56.1-.87-.05-.15.49.39.82.77,1.03.21.1.44.18.62.31.21.13.46.33.41.49.28.1.59-.03,1.05.05.31.05.72.26.92.44.23.21.39.44.39.74,0,1.1-1.87,1.41-1.87,1.41.77.28,1.77.8,2.62.59.15-.05.44-.21.62-.1.15.1.28.33.15.56.15.15.44.21.69.21.21.03.46-.03.64-.1.21-.1.28-.26.49-.39.18-.1.39-.08.59-.15.31-.13.46-.49.85-.51l-.15,6.39h1.21c-.03-.64-.03-1.31-.05-1.95-.03-1.1-.05-2.21-.1-3.31,0-.36-.03-.72,0-1.08.33.13.49.54.8.72.36.23,1.21.72,1.59.36-.05-.15-.28-.56,0-.51.1,0,.28.13.36.18.18.1.39.13.62.1.31-.03.59-.05.95.03.26.05.39.05.67,0,.21-.05.39-.15.56-.23.33-.15.72-.08.98-.36-.26,0-.8-.21-.9-.28-.31-.21-.56-.49-.72-.85-.15-.36-.26-.8.23-.9.28-.08.21-.03.39-.21.18-.18.46-.46.72-.54.31-.1,1.21-.05,1.31-.44-.05-.05-.1-.15-.1-.21.03-.08.1-.13.21-.18.18-.08.39-.15.56-.21.26-.08.64-.21.82-.44.08-.08.28-.33.21-.39-.13-.08-.41.21-.82.21s-.85-.26-1-.8c-.15-.62.13-1.08.59-1.46.15-.13.51-.36.62-.54-.03-.33.33-.87.33-1.18,0-.36.33-.49.64-.95.15-.26.28-.51.15-.64-.39.31-1.44,1.13-2.08.9Z"/><path class="cls-1" d="m115.97,148.03c16.64-6.6,28.27-17.15,34.28-31.17-6.01,14.02-17.67,24.58-34.28,31.17Z"/><path class="cls-1" d="m78.55,78.85h-.05v11.38c-.05,6.91-.13,23.68,12.38,38.21l24.22-19.77-36.54-29.81Zm15.38,38.98c-5.16-.03-9.35-4.24-9.32-9.42s4.21-9.4,9.37-9.4,9.32,4.24,9.32,9.42c-.03,5.19-4.21,9.4-9.37,9.4Z"/><path class="cls-3" d="m138.67,112.74c-.05.54-.36,1.39-.56,1.69l.36-.28.23.28.23-.28.33.28c-.18-.33-.46-1.16-.51-1.69h-.08Z"/><path class="cls-3" d="m150.25,116.85c4.85-11.27,4.6-21.44,4.6-26.55v-35.62c-9.22-3.26-23.68-5.37-40.01-5.37s-30.25,2.11-39.47,5.37v36.13c0,5.32-.23,14.77,4.6,26.04,6.01,14.02,17.67,24.55,34.28,31.17l.87.36.85-.36c16.61-6.6,28.27-17.15,34.28-31.17Zm-67.18-44.14c-.72-1.05-.98-2.08-.9-3.16.23.39.62.9,1.23,1.34.59.41,1.41.74,2.49.98,1.95.41,2.95,1.03,3.83,1.82l-4.24-7.58,7.29,4.7c-.31-2.16-1.8-3.29-2.54-5.29-.44-1.18-.44-2.26-.08-3.29.13.44.39,1.03.87,1.59.49.54,1.18,1.05,2.18,1.57,1.85.92,2.67,1.8,3.31,2.82l-2.23-8.47,5.85,6.32c.23-2.13-.92-3.6-1.13-5.7-.13-1.26.13-2.31.72-3.21,0,.44.1,1.1.46,1.77.33.64.87,1.31,1.72,2.05,1.62,1.41,2.18,2.49,2.54,3.67l-.05-8.91,4.03,7.58c.8-1.93-.05-3.67.26-5.75.18-1.26.74-2.21,1.54-2.93-.1.44-.18,1.08,0,1.82.15.72.51,1.49,1.16,2.41,1.26,1.8,1.52,3,1.54,4.29h.03l2.18-8.73,2.08,8.37c1.26-1.72.92-3.67,1.77-5.65.49-1.18,1.26-1.87,2.21-2.36-.21.39-.44,1-.46,1.77-.03.72.13,1.57.51,2.62.74,2,.69,3.21.44,4.42l4.21-7.81-.05,8.6c1.64-1.28,1.75-3.34,3.03-5.01.77-1,1.69-1.49,2.75-1.75-.31.33-.67.87-.9,1.59-.21.69-.26,1.57-.15,2.67.21,2.18-.13,3.34-.69,4.49l6.11-6.6-2.18,8.27c1.82-.87,2.49-2.64,4.13-3.93,1-.8,2-1.18,3.08-1.16-.36.26-.87.67-1.26,1.34-.39.62-.64,1.44-.82,2.54-.33,2.16-.95,3.21-1.77,4.16l.03.03,7.55-4.88-4.19,7.47c2.03-.28,3.03-1.93,4.93-2.75,1.16-.51,2.26-.64,3.31-.36-.41.15-1,.44-1.54.98s-.98,1.23-1.41,2.26c-.85,1.98-1.69,2.85-2.75,3.57l.05.05,8.53-2.85-4.16,4.31h-64.79l-4.13-4.34,8.27,2.75c-.67-2.05-2.57-2.77-3.8-4.55Zm27.76,22.73c.51,0,.95.03,1.31.1,1.34.21,1.9.74,2.16,1.13h1.69c.26-.39.8-.9,2.11-1.13.39-.05.8-.1,1.31-.1h6.65v-11.14h.54v11.68h-7.27c-2.49,0-2.9,1.03-2.98,1.21h-2.41c-.1-.21-.56-1.21-3.03-1.21h-7.24v-11.74h.54v11.2h6.63Zm4.01-.23v.56c-1-1.9-5.62-1.59-9.55-1.21v-10.86c2.11-.03,4.19-.31,5.83-.31,2.05,0,3.47.31,3.72,1.52v9.78c-1.26-1.49-5.01-1.36-8.94-.98v.31c3.88-.39,7.99-.51,8.94,1.18Zm.56-.51v-9.78c.26-1.21,1.67-1.52,3.72-1.52,1.62,0,3.67.31,5.83.31v10.86c-3.93-.39-8.53-.69-9.55,1.21v-.56c.92-1.72,5.03-1.57,8.94-1.18v-.31c-3.93-.39-7.7-.54-8.94.98Zm-24.52,33.74c-12.51-14.53-12.43-31.3-12.38-38.21v-11.38h.05l36.54,29.84h.05l36.57-29.79h.05v11.38c.03,6.91.1,23.68-12.4,38.19l-24.22-19.77h-.05l-24.22,19.75Zm34.31-4.73c-.31.46-.64.59-.64.95,0,.31-.36.85-.33,1.18-.1.18-.46.41-.62.54-.46.39-.74.85-.59,1.46.15.54.59.8,1,.8s.69-.28.82-.21c.08.05-.13.31-.21.39-.18.23-.56.36-.82.44-.18.05-.39.13-.56.21-.1.05-.18.1-.21.18,0,.05.05.15.1.21-.1.39-1,.33-1.31.44-.26.08-.54.36-.72.54-.18.18-.1.13-.39.21-.49.1-.39.54-.23.9s.41.64.72.85c.1.08.64.28.9.28-.26.28-.64.21-.98.36-.18.08-.36.18-.56.23-.28.05-.41.05-.67,0-.36-.08-.64-.05-.95-.03-.23.03-.44,0-.62-.1-.08-.05-.26-.18-.36-.18-.28-.05-.05.36,0,.51-.39.36-1.23-.13-1.59-.36-.31-.18-.46-.59-.8-.72-.03.36,0,.72,0,1.08.05,1.1.08,2.21.1,3.31.03.64.03,1.31.05,1.95h-1.21l.15-6.39c-.39.03-.54.39-.85.51-.21.08-.41.05-.59.15-.21.13-.28.28-.49.39-.18.08-.44.13-.64.1-.26,0-.54-.05-.69-.21.13-.23,0-.46-.15-.56-.18-.1-.46.05-.62.1-.85.21-1.85-.31-2.62-.59,0,0,1.87-.31,1.87-1.41,0-.31-.15-.54-.39-.74-.21-.18-.62-.39-.92-.44-.46-.08-.77.05-1.05-.05.05-.15-.21-.36-.41-.49-.18-.13-.41-.21-.62-.31-.39-.21-.92-.54-.77-1.03.31.15.59.18.87.05.21-.13.28-.28.28-.54,0-.33-.39-.56-.51-.82-.1-.21-.21-.41-.39-.56-.18-.13-.46-.18-.49-.44.36.13.46-.18.26-.41-.23-.26-.54-.39-.72-.72-.15-.28-.28-.64-.28-.98,0-.1.03-.39.15-.41s.18.15.23.23c.23.33.54.49.87.64.41.21.56.31,1.03.41.9.15,1.46.03,2-.46.1-.08.31-.23.41-.26.18.26.67.74,1.13.87.33.1.74.59.92.74.62.54,1,.23,1-.28,0-.44-.15-1-.26-1.41-.15-.67-.28-1-.39-1.72-.05-.44-.28-.8-.46-1.08-.15-.31-.39-1.08.18-.8.23.1.59.33.87.28.67-.1.74-.82.87-1.36.08-.28.08-.51.18-.8.05-.15.13-.26.21-.26.03.08.13.23.26.23.26,0,.46-.44.54-.69.05-.21.1-.49.15-.67.13-.33.15-.74.33-1.1.08.26.18.69.23.85.15.39.28.8.51,1.13.21.28.46.36.77.21.15.39.15,1.59.49,2.18.18.33.44.46.72.46.26,0,.44-.08.64-.18.23-.13.49-.31.64-.31.08,0,.13.03.13.1,0,.26-.39.95-.46,1.1-.13.33-.31.72-.41,1.05-.08.28-.18.64-.23.92-.08.33-.13.72-.15,1.23-.03.31,0,.87.23,1.03.33.23.77-.23,1.05-.44.33-.26.62-.51.87-.85.18-.26.56-.9.9-.87,0,.26.36.64.92.72.33.05.62-.03.82-.15.26-.18.28-.18.56-.08.64.23,1.69-.59,2.08-.9.13.13,0,.39-.15.64Z"/><polygon class="cls-3" points="115.14 108.69 115.12 108.66 115.09 108.69 115.12 108.69 115.14 108.69"/><path class="cls-3" d="m145.57,108.43c.03-5.19-4.16-9.42-9.32-9.42s-9.37,4.21-9.37,9.4,4.19,9.42,9.35,9.42c5.14,0,9.35-4.21,9.35-9.4Zm-7.16-7.06c-.15.08-.26.23-.26.41,0,.23.21.41.44.41s.41-.21.41-.44c-.03-.13-.08-.23-.15-.31l.82-.36.49.74c-.21.05-.36.23-.36.44,0,.23.21.41.44.41s.41-.21.41-.44c0-.1-.05-.18-.1-.26.51-.05,1.21.05,1.57.15-.77.26-1.44.87-1.87,1.54-.54-.41-2-.85-2.52-.82.03-.72-.21-1.59-.59-2.31.51.15,1.03.56,1.28.82Zm.69,14.48c-.36-.33-1.13-.82-1.85-1.21-.05-.05-.18-.1-.28-.1s-.21.1-.15.26c-.8-.39-.98-1.23-1.34-1.23-.13,0-.21.1-.18.28-.87-.59-1.46-1.57-1.46-2.49-.36-.15-.85-.31-1.03-.31-.21,0-.26.18-.18.33-.23-.03-.33-.13-.49-.39-.1-.15-.21-.18-.26-.18-.1,0-.15.08-.15.18,0,.05.03.13.05.18-.21-.03-.36-.08-.49-.31-.1-.18-.21-.23-.31-.23s-.15.08-.15.18c0,.05.03.13.05.18-.49-.08-.49-.41-.64-.56-.08-.05-.15-.08-.26-.08-.15,0-.26.08-.31.18-.1.18-.13.39-.33.49-.13.08-.23.03-.36,0-.18-.03-.31.08-.39.18-.18-.05-.08-.28-.08-.36,0-.15-.05-.36.03-.54.1-.23.41-.31.62-.44.1-.05.08-.13-.03-.15-.26-.05-.67.03-.95-.18-.1-.08-.13-.21-.15-.33-.05-.18-.18-.26-.31-.28-.03-.15.28-.21.36-.23.15-.08.21-.21.41-.21.28,0,.56.33.77.49.13.1.21.05.15-.1-.08-.21-.26-.41-.23-.64.03-.13.1-.21.21-.28.15-.13.15-.23.1-.36.13-.1.31.13.39.18.13.1.28.13.36.31.18.33-.13.59,0,.92.05.13.15.18.33.21.85.08,2.85.39,3.11-.08-.69,0-.98-.21-1.16-.64-.08-.13-.13-.28-.28-.28-.1,0-.18.08-.23.18-.1-.26-.08-.49.03-.74.1-.28.03-.44-.13-.44-.08,0-.15.05-.21.15-.1-.31-.03-.54.08-.77.1-.26.05-.44-.1-.44-.08,0-.13.03-.21.13-.05-.23,0-.49.15-.74.1-.13.15-.31.13-.49-.03-.23-.15-.31-.28-.33-.18-.03-.56,0-.74-.13-.1-.08-.13-.18-.18-.28-.05-.15-.18-.26-.33-.28-.05-.13.23-.13.31-.15.15-.05.28-.21.46-.21.23.03.46.15.62.23.08.05.18.05.15-.08-.03-.15-.23-.41-.23-.72.03-.21.23-.31.23-.51,0-.08-.05-.13-.1-.18,0-.03.1-.08.21-.05.13.03.23.13.33.18.23.13.41.31.44.54.05.23-.08.44-.1.67-.03.15.08.18.15.1.15-.15.18-.41.39-.49.1-.05.23,0,.33.03.15.05.28-.03.36-.13.18.1.03.33.03.41-.03.15.03.33-.08.49-.18.28-.54.23-.72.56-.1.15-.1.36-.08.54.05.39.46,1.57,1.03,2.21.44-.13,1.44-.18,1.77-.03.54-.1,1.13-.59,1.21-.98-.05-.03-.95.05-1.18.03-.31,0-.18-.59.1-.64.21-.03.85-.08,1.1-.03-.33-.33-.87-.28-1.36-.08-.28.1-.54.13-.74.13-.36-.03-.59-.26-.54-.69.05-.46.46-.8.59-.74.03.03.05.05.03.08-.05.08-.08.13-.08.21-.05.41.21.62.59.64.13.03.26,0,.41-.05v-.03c-.03-.05-.03-.13-.03-.18-.26,0-.39-.05-.41-.21-.05-.23-.05-.44-.03-.56l-.03-.05c-.03-.08-.03-.15.03-.26.21-.13.72-.26.87-.41.28-.08.56-.13.69-.31,0-.05.15-.13.39-.18.1,0,.21-.03.31-.03.82,0,2.11.54,2.54.9.13.23.23.69.28,1.08.05.28.05.72.18.98-.21.08-.46.05-.62-.15-.08.49.08.9.39,1.16-.23.18-.62.18-.77,0-.15.41,0,.9.31,1.08-.18.18-.59.23-.8.05-.13.21-.18.8.21,1.1-.23.21-.56.23-.82.08-.05.18-.08.39-.08.62,0,.67.23,1.59,1.08,2.47.46.49,1.82,1.49,2.31,1.64-.8.82-2,1.54-2.75,1.77Zm3.54-2.62c-1.05-1.16-2.03-2.7-1.93-4.44.1-1.62,1.05-2.47,1.13-3.57.05-.39-.05-.74-.21-1.08.64.26,1.39,1.39.92,2.52.46.05.67.56.39,1.05-.08-.18-.26-.26-.46-.28-.62-.05-1.03.8-1.08,1.62-.05.72.13,1.46.54,2.26-.1-.8-.03-1.54.67-2.21.51-.49,1.08-1,1-1.77.59.41.64,1.46.08,2,.31.08.41.39.39.56,0,.26-.13.49-.36.69,0-.31-.21-.54-.49-.54-.31-.03-.72.21-.77.92-.05.67.23,1.23.56,1.77,0,0-.1.15-.18.26-.08.13-.18.23-.21.23Z"/><path class="cls-3" d="m93.24,104.4c-.08.05-.13.1-.18.15-.03.03,0,.08.03.08s.1-.03.18.03c.13.05.26.1.36-.03s.13-.28.08-.39c-.13.03-.31.08-.46.15Z"/><path class="cls-3" d="m122.46,88.25c.77-.36.95-.67.95-1.21s-.39-1.1-1.31-1.1c-1.16,0-1.52.87-1.52,1.36,0,.56.36,1,.87,1.31-.41.15-.95.49-.92,1.16,0,.64.54,1.23,1.41,1.23.95,0,1.59-.59,1.59-1.39,0-.59-.33-.98-1.08-1.36Zm-1.16-1.23c0-.41.26-.8.74-.8.44,0,.8.33.8.9,0,.49-.23.77-.56,1.03-.67-.41-.98-.69-.98-1.13Zm.67,3.75c-.39,0-.87-.33-.87-1.03,0-.39.21-.8.59-1,.87.54,1.08.8,1.08,1.23,0,.36-.26.77-.8.8Z"/><polygon class="cls-3" points="116.74 87.53 116.56 88.76 116.76 88.76 116.94 88.3 118.97 88.3 116.99 92.38 117.35 92.48 119.84 87.6 119.79 87.53 116.74 87.53"/><path class="cls-3" d="m137.74,103.83c-.05-.03-.08-.05-.1-.05-.03-.03-.08-.08-.21-.1-.26-.03-.36.18-.39.28,0,.08,0,.18.05.23s.1.1.18.1c.05,0,.1,0,.15-.03.1-.05.15-.15.18-.23.03-.03.13-.08.26-.1.03,0,.05-.03.05-.05.03,0,.03-.03,0-.03-.05,0-.13,0-.18-.03Z"/><path class="cls-3" d="m93.98,99c-5.16,0-9.35,4.21-9.37,9.4-.03,5.19,4.16,9.4,9.32,9.42,5.16,0,9.35-4.21,9.37-9.4,0-5.19-4.16-9.42-9.32-9.42Zm6.34,13.22c-.08-.15-.08-.39-.13-.51-.08-.21-.15-.33-.28-.41-.18-.13-.33-.28-.51-.39-.46-.26-.54-.33-.87-.15-.31.15-.82.59-1.34.87-.41.21-1.52,0-1.82-.28.1.31.72.64,1.21.87-.08.15-.23,1.03-.56,1.54-.03-.13-.1-.21-.21-.21-.31,0-.26.67-.56,1.03-.03-.1-.1-.21-.21-.21-.28,0-.26.64-.59.98-.03-.13-.1-.23-.26-.23-.13,0-.26.13-.36.26-.41.44-.59.67-.98,1.08-1.28-.08-3.18-.98-3.85-1.77,1.21-1.28,2.31-2.59,2.82-2.98.26-.77,1.03-2.39,1.31-3.13-.03-.08-.08-.15-.1-.21-.18.1-.41.13-.51.08.08-.21.08-.54,0-.8-.13.08-.33.13-.46.08.08-.26.1-.54.03-.8-.18.08-.33.1-.46.05.08-.28.15-.54.05-.9,0-.03-.03-.05-.03-.08-.23.13-1.05.26-1.23.18-.13-.1.59-.8,1.18-1.39-.56.26-1.28.51-2.39.72-.64.13-1.95.36-2.88.18-.15-.03-.13-.23.03-.23.49,0,1.16-.03,1.64-.15.13-.03.33-.15-.03-.21-.41-.08-1.13-.18-1.49-.31-.13-.05-.05-.21.05-.18.44.03.98.13,1.36.15.23,0,.33-.03.15-.15-.1-.08-.41-.28-.74-.49-.08-.05-.05-.13.03-.15.26-.05,1.26.59,1.93.77.15.05.28.08.41.05s.15-.1.15-.15c-.03-.15-.69-.46-1-.69-.13-.08,0-.18.15-.15.36.1,1.16.54,1.54.56.28.03.41-.05.39-.13-.03-.21-1.16-.72-1.44-.92-.08-.05.03-.13.1-.13.56.08,1.69.85,2.18.74.05,0,.13-.05.1-.13-.05-.23-.98-.72-1.21-.87-.1-.08.03-.15.18-.13.33.08.87.36,1.18.51.15.08.28.1.44.08.21-.03.39-.26.31-.69-.08-.46-.51-.64-.8-.72-.33-.1-.08-.23.21-.18.54.1.92.36,1.03.82.03.08.03.18.03.28,0,.26.21.18.36-.05.31-.41.36-.82.31-1.1-.08-.49-.77-.69-.77-.8,0-.03.05-.08.08-.08.26-.05,1,.26,1.1.85.05.31,0,.46-.05.77-.03.05.03.13.13.03.33-.36.64-.98.54-1.54-.1-.59-.72-.82-.74-.92,0-.03.05-.08.1-.08.26-.05.92.36,1.08,1.03.13.59-.15,1.82-2,2.8.77-.18.98-.15,1.05-.05.87-.23,1.44-.41,1.67-.36.26.39-.28.54-.28.82s.62-.18.51.26c-.18.33-.41.36-.69.46-.13.1-.69.49-.98.72.87.62,1.8,1.54,1.85,1.59.05.13.28.51.51,1.1l.03.03c.13-.39.33-1,.41-1.34.08-.28.05-.36.13-.54.08-.13.33-.36.54-.69.21-.28.51-.74.62-.92.18-.28.36-.23.72-.33.03-.03.41-.05.56-.03.03.28-.13.77-.23.87-.1.03-.36.05-.56.08-.13,0-.15.03-.23.15-.23.39-.44.77-.69,1.23-.05.54-.05,1.08-.1,1.75-.03.23.03.54-.15.8-.21.26-.44.46-.62.56-.03.03-.08.1.08.05.1-.03.51-.23.62-.28.31-.1.67-.46,1.13,0,.23.23.59.44,1.03.72.15.1.23.08.46.28.18.15.26.49.36.64.26.44.28.72.28.82-.15.1-.77.1-1.03.03Z"/><path class="cls-3" d="m136.54,110.33c-.05.54-.36,1.39-.54,1.69l.36-.28.23.28.23-.28.33.28c-.18-.33-.46-1.16-.54-1.69h-.08Z"/><path class="cls-3" d="m109.29,90.92v-.23h-.21c-.67,0-.72-.08-.72-.51v-1.87c0-.51.08-.54.51-.54h.41v-.23c-.44,0-.87.03-1.34.03-.41,0-.9-.03-1.34-.03v.23h.41c.44,0,.51.03.51.54v1.87c0,.44-.05.51-.72.51h-.21v.23c.46,0,.95-.03,1.34-.03.51,0,.92.03,1.34.03Z"/><path class="cls-3" d="m136.71,104.99c-.18,0-.36.03-.46.1-.03.05-.03.1-.05.18.31-.03.67.05.92.36.05-.1.08-.26.08-.33,0-.05,0-.15-.08-.21-.08-.08-.23-.1-.41-.1Z"/><path class="cls-3" d="m110.37,89.76c0,.64.54,1.23,1.41,1.23.95,0,1.59-.59,1.59-1.39,0-.59-.33-.98-1.08-1.36.77-.36.95-.67.95-1.21s-.39-1.1-1.31-1.1c-1.16,0-1.52.87-1.52,1.36,0,.56.36,1,.87,1.31-.41.15-.95.49-.92,1.16Zm.77-2.75c0-.41.26-.8.74-.8.44,0,.8.33.8.9,0,.49-.23.77-.56,1.03-.67-.41-.98-.69-.98-1.13Zm.36,1.72c.87.54,1.08.8,1.08,1.23,0,.36-.26.77-.8.8-.39,0-.87-.33-.87-1.03,0-.39.21-.8.59-1Z"/></svg>